<?xml version="1.0" encoding="UTF-8" standalone="no"?>
<svg
   xmlns:dc="http://purl.org/dc/elements/1.1/"
   xmlns:cc="http://creativecommons.org/ns#"
   xmlns:rdf="http://www.w3.org/1999/02/22-rdf-syntax-ns#"
   xmlns:svg="http://www.w3.org/2000/svg"
   xmlns="http://www.w3.org/2000/svg"
   xmlns:xlink="http://www.w3.org/1999/xlink"
   xmlns:sodipodi="http://sodipodi.sourceforge.net/DTD/sodipodi-0.dtd"
   xmlns:inkscape="http://www.inkscape.org/namespaces/inkscape"
   width="8.4666605mm"
   height="8.46667mm"
   viewBox="0 0 8.4666605 8.46667"
   version="1.1"
   id="svg1008"
   inkscape:version="1.0.2 (e86c870879, 2021-01-15)"
   sodipodi:docname="logo.svg">
  <defs
     id="defs1002">
    <linearGradient
       inkscape:collect="always"
       id="linearGradient890">
      <stop
         style="stop-color:#f4ee00;stop-opacity:0.96078432"
         offset="0"
         id="stop886" />
      <stop
         style="stop-color:#17f851;stop-opacity:0.98039216"
         offset="0.48462161"
         id="stop892" />
      <stop
         style="stop-color:#0031c7;stop-opacity:0.96078432"
         offset="1"
         id="stop888" />
    </linearGradient>
    <linearGradient
       inkscape:collect="always"
       id="linearGradient864">
      <stop
         style="stop-color:#ff2800;stop-opacity:1"
         offset="0"
         id="stop860" />
      <stop
         style="stop-color:#f3ee00;stop-opacity:0.96102577"
         offset="1"
         id="stop862" />
    </linearGradient>
    <linearGradient
       inkscape:collect="always"
       xlink:href="#linearGradient864"
       id="linearGradient866"
       x1="9.3971806"
       y1="5.5346298"
       x2="13.056641"
       y2="18.826172"
       gradientUnits="userSpaceOnUse"
       gradientTransform="matrix(0.10752142,0,0,0.10752142,181.57343,162.05815)" />
    <linearGradient
       inkscape:collect="always"
       xlink:href="#linearGradient890"
       id="linearGradient884"
       x1="23.074219"
       y1="17.425781"
       x2="27.701172"
       y2="30.201172"
       gradientUnits="userSpaceOnUse"
       gradientTransform="matrix(0.10752142,0,0,0.10752142,181.57343,162.05815)" />
  </defs>
  <sodipodi:namedview
     id="base"
     pagecolor="#ffffff"
     bordercolor="#666666"
     borderopacity="1.0"
     inkscape:pageopacity="0.0"
     inkscape:pageshadow="2"
     inkscape:zoom="8"
     inkscape:cx="33.930294"
     inkscape:cy="2.8143479"
     inkscape:document-units="mm"
     inkscape:current-layer="layer1"
     inkscape:document-rotation="0"
     showgrid="false"
     inkscape:window-width="1366"
     inkscape:window-height="699"
     inkscape:window-x="0"
     inkscape:window-y="0"
     inkscape:window-maximized="1" />
  <metadata
     id="metadata1005">
    <rdf:RDF>
      <cc:Work
         rdf:about="">
        <dc:format>image/svg+xml</dc:format>
        <dc:type
           rdf:resource="http://purl.org/dc/dcmitype/StillImage" />
        <dc:title />
      </cc:Work>
    </rdf:RDF>
  </metadata>
  <g
     inkscape:label="Capa 1"
     inkscape:groupmode="layer"
     id="layer1"
     transform="translate(-176.43929,-162.07619)">
    <path
       id="path843"
       style="font-style:normal;font-variant:normal;font-weight:800;font-stretch:normal;font-size:10.5833px;line-height:1.25;font-family:Lexend;-inkscape-font-specification:'Lexend Ultra-Bold';fill:url(#linearGradient884);fill-opacity:1;stroke:none;stroke-width:0.264583"
       d="m 184.0544,163.93179 -1.0771,0.15058 -0.81649,0.87046 0.14616,0.35259 h 2.24493 v -0.79129 h -1.00192 l 0.24927,-0.2709 c 0.10087,-0.11122 0.18286,-0.21364 0.25515,-0.31144 z" />
    <path
       id="path857"
       style="font-style:normal;font-variant:normal;font-weight:800;font-stretch:normal;font-size:10.5833px;line-height:1.25;font-family:Lexend;-inkscape-font-specification:'Lexend Ultra-Bold';mix-blend-mode:normal;fill:url(#linearGradient866);fill-opacity:1;stroke:none;stroke-width:0.264583"
       d="m 183.38218,162.20893 c -0.17203,-0.003 -0.33686,0.0343 -0.49455,0.11172 -0.15483,0.0774 -0.29244,0.18361 -0.41287,0.31837 -0.12042,0.13189 -0.21377,0.281 -0.27972,0.4473 l 0.67537,0.34399 c 0.0774,-0.13476 0.14755,-0.22791 0.21063,-0.27952 0.0631,-0.0545 0.13476,-0.0817 0.21504,-0.0817 0.0889,0 0.15194,0.0201 0.18922,0.0603 0.0401,0.0373 0.0603,0.0773 0.0603,0.12034 0,0.0516 -0.0186,0.11179 -0.0559,0.1806 -0.0344,0.0688 -0.0802,0.14049 -0.13756,0.21504 -0.0573,0.0746 -0.11619,0.14777 -0.1764,0.21945 -0.0602,0.0688 -0.11618,0.13033 -0.16779,0.18481 l -0.0307,0.0328 1.0771,-0.15058 c 0.088,-0.11903 0.15953,-0.23033 0.20518,-0.32949 0.086,-0.18064 0.12894,-0.34258 0.12894,-0.48595 0,-0.18063 -0.0458,-0.33837 -0.13755,-0.47313 -0.0918,-0.13476 -0.21366,-0.23941 -0.36562,-0.31396 -0.15196,-0.0774 -0.31966,-0.11746 -0.50317,-0.12033 z" />
    <text
       xml:space="preserve"
       style="font-style:normal;font-weight:normal;font-size:8.70425px;line-height:1.25;font-family:sans-serif;fill:#000000;fill-opacity:1;stroke:none;stroke-width:0.264583"
       x="176.98817"
       y="168.16788"
       id="text896"><tspan
         sodipodi:role="line"
         id="tspan894"
         x="176.98817"
         y="168.16788"
         style="font-style:normal;font-variant:normal;font-weight:bold;font-stretch:normal;font-family:C059;-inkscape-font-specification:'C059 Bold';stroke-width:0.264583">g</tspan></text>
  </g>
</svg>
